# xmcd CD database file
#
# Track frame offsets:
#	150
#	16643
#	34645
#	45538
#	60509
#	88969
#	105285
#
# Disc length: 1722 seconds
#
# Revision: 0
# Processed by: cddbd v1.5.2PL0 Copyright (c) Steve Scherf et al.
# Submitted via: CDex 1.70beta2
#
DISCID=4506b807
DTITLE=Goodlife Rhythm and Blues Review, The - Tales From The Blues Bunker
DYEAR=1999
DGENRE=Blues
TTITLE0=I Gotta Go
TTITLE1=I'm In Love With Your Sister
TTITLE2=What About Love
TTITLE3=Believe Me
TTITLE4=I Got A Mind To Give Up Living
TTITLE5=Generous Man
TTITLE6=Somebody's Blues
EXTD=YEAR: 1999
EXTT0=
EXTT1=
EXTT2=
EXTT3=
EXTT4=
EXTT5=
EXTT6=
PLAYORDER=
